<svg width="16" height="20" viewBox="0 0 16 20" fill="none" xmlns="http://www.w3.org/2000/svg">
<path d="M1.62078 0.314453C1.42698 0.314473 1.24112 0.39147 1.10407 0.528512C0.967032 0.665553 0.890034 0.851416 0.890015 1.04522V3.9683V18.5837C0.890034 18.7775 0.967032 18.9634 1.10407 19.1004C1.24112 19.2374 1.42698 19.3144 1.62078 19.3145H5.82271C5.99131 19.3145 6.15475 19.2563 6.28533 19.1497C6.41591 19.043 6.5056 18.8945 6.5392 18.7293L8.19771 10.5652L9.85621 18.7293C9.88981 18.8945 9.9795 19.043 10.1101 19.1497C10.2407 19.2563 10.4041 19.3145 10.5727 19.3145H14.7746C14.9684 19.3144 15.1543 19.2374 15.2913 19.1004C15.4284 18.9634 15.5054 18.7775 15.5054 18.5837V3.9683V1.04522C15.5054 0.851416 15.4284 0.665553 15.2913 0.528512C15.1543 0.39147 14.9684 0.314473 14.7746 0.314453H10.39H1.62078ZM2.35155 1.77599H5.27463V3.57722L3.81309 4.55063L2.35155 3.57722V1.77599ZM6.73617 1.77599H9.65925V3.9683C9.65926 4.0886 9.68896 4.20704 9.74573 4.31311C9.8025 4.41917 9.88457 4.50959 9.98467 4.57632L12.177 6.03786C12.297 6.11788 12.4381 6.16057 12.5823 6.16057C12.7266 6.16057 12.8676 6.11788 12.9877 6.03786L14.0439 5.33278V17.8529H11.1693L8.9142 6.74579C8.88092 6.58029 8.79136 6.43141 8.66075 6.32445C8.53014 6.21749 8.36653 6.15905 8.19771 6.15905C8.02889 6.15905 7.86528 6.21749 7.73466 6.32445C7.60405 6.43141 7.5145 6.58029 7.48121 6.74579L5.2261 17.8529H2.35155V5.33278L3.40774 6.03786C3.52779 6.11788 3.66883 6.16057 3.81309 6.16057C3.95736 6.16057 4.0984 6.11788 4.21844 6.03786L6.41075 4.57632C6.51084 4.50959 6.59292 4.41917 6.64968 4.31311C6.70645 4.20704 6.73616 4.0886 6.73617 3.9683V1.77599ZM11.1208 1.77599H14.0439V3.57722L12.5823 4.55063L11.1208 3.57722V1.77599Z" fill="currentColor"/>
</svg>
