<svg width="21" height="20" viewBox="0 0 21 20" fill="none" xmlns="http://www.w3.org/2000/svg">
<path d="M8.35426 0.314453C7.14963 0.314453 6.16195 1.30213 6.16195 2.50676V3.23753H2.5081C1.30348 3.23753 0.315796 4.22521 0.315796 5.42984V17.1221C0.315796 18.3268 1.30348 19.3145 2.5081 19.3145H18.585C19.7897 19.3145 20.7773 18.3268 20.7773 17.1221V5.42984C20.7773 4.22521 19.7897 3.23753 18.585 3.23753H14.9312V2.50676C14.9312 1.30213 13.9435 0.314453 12.7389 0.314453H8.35426ZM8.35426 1.77599H12.7389C13.1499 1.77599 13.4696 2.0957 13.4696 2.50676V3.23753H7.62349V2.50676C7.62349 2.0957 7.9432 1.77599 8.35426 1.77599ZM2.5081 4.69907H18.585C18.9961 4.69907 19.3158 5.01878 19.3158 5.42984V10.5452H16.3927V9.08368H13.4696V10.5452H7.62349V9.08368H4.70041V10.5452H1.77733V5.42984C1.77733 5.01878 2.09705 4.69907 2.5081 4.69907ZM1.77733 12.0068H19.3158V17.1221C19.3158 17.5332 18.9961 17.8529 18.585 17.8529H2.5081C2.09705 17.8529 1.77733 17.5332 1.77733 17.1221V12.0068Z" fill="currentColor"/>
</svg>
