<svg width="22" height="20" viewBox="0 0 22 20" fill="none" xmlns="http://www.w3.org/2000/svg">
<path d="M7.68225 0.314458C7.58726 0.314122 7.49298 0.330882 7.40393 0.363937L1.0706 2.73894C0.919627 2.79564 0.789573 2.8971 0.697834 3.02973C0.606096 3.16237 0.557047 3.31985 0.557252 3.48112V7.43946C0.557273 7.64941 0.640687 7.85076 0.789149 7.99923C0.93761 8.14769 1.13896 8.2311 1.34892 8.23112H3.72392V18.5228C3.72394 18.7327 3.80735 18.9341 3.95581 19.0826C4.10428 19.231 4.30563 19.3144 4.51558 19.3145H17.1822C17.3922 19.3144 17.5936 19.231 17.742 19.0826C17.8905 18.9341 17.9739 18.7327 17.9739 18.5228V8.23112H20.3489C20.5589 8.2311 20.7602 8.14769 20.9087 7.99923C21.0571 7.85076 21.1406 7.64941 21.1406 7.43946V3.48112C21.1408 3.31985 21.0917 3.16237 21 3.02973C20.9083 2.8971 20.7782 2.79564 20.6272 2.73894L14.2939 0.363937C14.2048 0.330882 14.1106 0.314122 14.0156 0.314458H7.68225ZM8.5636 1.89779H13.1342C12.9356 2.33236 12.2889 3.48112 10.8489 3.48112C9.40894 3.48112 8.76222 2.33236 8.5636 1.89779ZM6.96171 2.2225C7.02269 2.38162 8.08647 5.06446 10.8489 5.06446C13.6114 5.06446 14.6751 2.38162 14.7361 2.2225L19.5572 4.03158V6.64779H17.1822C16.9723 6.64781 16.7709 6.73123 16.6225 6.87969C16.474 7.02815 16.3906 7.2295 16.3906 7.43946V17.7311H5.30725V7.43946C5.30723 7.2295 5.22382 7.02815 5.07535 6.87969C4.92689 6.73123 4.72554 6.64781 4.51558 6.64779H2.14058V4.02849L6.96171 2.2225ZM10.8489 6.64779C9.54658 6.64779 8.47392 7.72045 8.47392 9.02279H10.0573C10.0573 8.57713 10.4033 8.23112 10.8489 8.23112C11.2946 8.23112 11.6406 8.57713 11.6406 9.02279C11.6406 9.23016 11.5956 9.293 11.4983 9.39079C11.4011 9.48858 11.2176 9.59379 10.9974 9.66602C10.5569 9.81047 10.0665 9.81446 10.0665 9.81446C10.0659 9.81447 10.048 9.81446 10.048 9.81446L10.0573 10.6061L10.048 11.3978C10.048 11.3978 10.0659 11.3978 10.0665 11.3978C10.0665 11.3978 10.5569 11.4018 10.9974 11.5462C11.2176 11.6185 11.4011 11.7237 11.4983 11.8215C11.5956 11.9192 11.6406 11.9821 11.6406 12.1895C11.6406 12.6351 11.2946 12.9811 10.8489 12.9811C10.4033 12.9811 10.0573 12.6351 10.0573 12.1895H8.47392C8.47392 13.4918 9.54658 14.5645 10.8489 14.5645C12.1513 14.5645 13.2239 13.4918 13.2239 12.1895C13.2239 11.5925 12.972 11.055 12.624 10.7051C12.5825 10.6634 12.5341 10.6434 12.491 10.6061C12.5341 10.5688 12.5825 10.5488 12.624 10.5072C12.972 10.1573 13.2239 9.61976 13.2239 9.02279C13.2239 7.72045 12.1513 6.64779 10.8489 6.64779Z" fill="currentColor"/>
</svg>
