<svg width="19" height="20" viewBox="0 0 19 20" fill="none" xmlns="http://www.w3.org/2000/svg">
<path d="M6.04385 0.314454C5.90483 0.31425 5.76863 0.353703 5.65124 0.428181C5.53386 0.50266 5.44014 0.609075 5.38111 0.73494C5.32207 0.860804 5.30016 1.0009 5.31794 1.13878C5.33572 1.27666 5.39246 1.4066 5.4815 1.51337L6.08667 2.23843L3.2949 3.30319H3.30061C1.87651 3.83745 0.928467 5.20488 0.928467 6.72581V15.6606C0.928486 15.8544 1.00548 16.0403 1.14253 16.1773C1.27957 16.3144 1.46543 16.3914 1.65924 16.3914H3.85154V18.5837C3.85156 18.7775 3.92856 18.9634 4.0656 19.1004C4.20264 19.2374 4.38851 19.3144 4.58231 19.3145H14.8131C15.0069 19.3144 15.1927 19.2374 15.3298 19.1004C15.4668 18.9634 15.5438 18.7775 15.5438 18.5837V16.3914H17.7362C17.93 16.3914 18.1158 16.3144 18.2529 16.1773C18.3899 16.0403 18.4669 15.8544 18.4669 15.6606V6.72581C18.4669 5.20488 17.5189 3.83745 16.0948 3.30319L13.363 2.17278L13.9139 1.51337C14.0029 1.4066 14.0597 1.27666 14.0775 1.13878C14.0952 1.0009 14.0733 0.860804 14.0143 0.734939C13.9552 0.609075 13.8615 0.50266 13.7442 0.428181C13.6268 0.353702 13.4906 0.31425 13.3515 0.314454H6.04385ZM7.6053 1.77599H11.7901L9.6977 4.28801L7.6053 1.77599ZM12.3838 3.35171L15.561 4.66196C15.5685 4.66494 15.5762 4.6678 15.5838 4.67052C16.4426 4.99272 17.0054 5.80889 17.0054 6.72581V14.9298H15.5438V8.35291C15.5452 8.25608 15.5273 8.15994 15.4912 8.07008C15.4551 7.98021 15.4015 7.89843 15.3335 7.82946C15.2655 7.7605 15.1845 7.70574 15.0951 7.66836C15.0058 7.63099 14.9099 7.61174 14.8131 7.61174C14.7162 7.61174 14.6204 7.63099 14.531 7.66836C14.4417 7.70574 14.3607 7.7605 14.2927 7.82946C14.2247 7.89843 14.1711 7.98021 14.1349 8.07008C14.0988 8.15994 14.0809 8.25608 14.0823 8.35291V15.5436C14.0694 15.622 14.0694 15.702 14.0823 15.7805V17.8529H5.31308V15.7776C5.32597 15.6992 5.32597 15.6192 5.31308 15.5407V8.35291C5.31461 8.25503 5.29646 8.15783 5.25971 8.06709C5.22295 7.97635 5.16834 7.89392 5.09911 7.8247C5.02989 7.75547 4.94746 7.70086 4.85672 7.6641C4.76598 7.62735 4.66878 7.6092 4.57089 7.61073C4.47493 7.61222 4.3802 7.63261 4.29211 7.67072C4.20402 7.70883 4.1243 7.76391 4.0575 7.83283C3.9907 7.90175 3.93813 7.98315 3.9028 8.07239C3.86746 8.16163 3.85004 8.25695 3.85154 8.35291V14.9298H2.39001V6.72581C2.39001 5.80889 2.95275 4.99272 3.81158 4.67052C3.81348 4.67053 3.81539 4.67053 3.81729 4.67052L7.07435 3.42593L9.13535 5.89799C9.20393 5.98061 9.28987 6.0471 9.38707 6.09274C9.48426 6.13838 9.59032 6.16204 9.6977 6.16204C9.80507 6.16204 9.91113 6.13838 10.0083 6.09274C10.1055 6.0471 10.1915 5.98061 10.26 5.89799L12.3838 3.35171Z" fill="currentColor"/>
</svg>
