<svg width="14" height="20" viewBox="0 0 14 20" fill="none" xmlns="http://www.w3.org/2000/svg">
<path d="M4.86326 0.314554C4.65297 0.314554 4.45506 0.401143 4.31281 0.54958L2.72948 2.1329C2.57486 2.28134 2.49446 2.48544 2.49446 2.69573C2.49446 2.69573 2.52538 8.00234 2.49446 8.9981C2.46353 10.0433 0.911133 10.9958 0.911133 18.5228C0.911133 18.9619 1.26367 19.3145 1.7028 19.3145H12.7861C13.2252 19.3145 13.5777 18.9619 13.5777 18.5228C13.5777 10.9649 12.0315 9.84543 11.9944 8.80019C11.9635 7.80442 11.9944 2.69573 11.9944 2.69573C11.9944 2.48544 11.914 2.28134 11.7656 2.1329L10.1761 0.54958C9.97196 0.339294 9.66271 0.265075 9.3844 0.351664C9.09989 0.438251 8.89579 0.673277 8.84013 0.963964C8.84013 0.963964 8.62984 2.11435 8.25256 3.22762C8.06083 3.78426 7.82581 4.32853 7.59078 4.68107C7.36195 5.02742 7.21351 5.06453 7.24443 5.06453C7.27536 5.06453 7.12692 5.02742 6.89808 4.68107C6.66306 4.32853 6.42803 3.78426 6.2363 3.22762C5.85902 2.11435 5.64874 0.963964 5.64874 0.963964C5.5807 0.586688 5.24672 0.30837 4.86326 0.314554ZM4.45506 2.64006C4.5602 3.07919 4.55402 3.17815 4.73956 3.73478C4.95603 4.36564 5.2158 5.00887 5.57452 5.54695C5.92706 6.09122 6.45277 6.64785 7.24443 6.64785C8.03609 6.64785 8.56181 6.09122 8.91435 5.54695C9.27307 5.00887 9.53283 4.36564 9.7493 3.73478C9.93485 3.17815 9.92866 3.07919 10.0338 2.64006L10.4111 3.01734C10.4049 3.45028 10.3925 6.7097 10.4111 8.23118H4.07778C4.09634 6.60456 4.07778 3.4441 4.07778 3.01734L4.45506 2.64006ZM3.97882 9.8145H10.5595C10.8997 11.2432 11.7779 12.6595 11.9016 17.7311H2.58105C2.7233 12.4925 3.66958 11.2865 3.97882 9.8145Z" fill="currentColor"/>
</svg>
