<svg width="22" height="20" viewBox="0 0 22 20" fill="none" xmlns="http://www.w3.org/2000/svg">
<path d="M3.58528 0.314453C3.25468 0.314453 2.95106 0.496624 2.80263 0.800241C2.80263 0.800241 0.987671 4.51112 0.987671 9.8143C0.987671 15.1175 2.80263 18.8284 2.80263 18.8284C3.00504 19.2467 3.49757 19.4288 3.92264 19.2399C3.92264 19.2399 9.66438 16.811 12.6466 12.4052H15.2239C18.0442 16.6423 23.7185 19.1387 23.9614 19.2399C24.0761 19.2939 24.1908 19.3141 24.3055 19.3141C24.6293 19.3141 24.9329 19.1387 25.0814 18.8284C25.1556 18.6799 26.8963 15.0635 26.8963 9.8143C26.8963 4.56509 25.1556 0.948677 25.0814 0.800241C24.879 0.381924 24.3797 0.2065 23.9546 0.388671C23.7117 0.496624 18.1117 3.02002 15.2374 7.22343H12.6466C9.69136 2.81086 3.91589 0.381924 3.91589 0.381924C3.81468 0.341441 3.69999 0.314453 3.58528 0.314453ZM4.04408 2.41953C5.17759 2.96604 9.21907 5.01715 11.3511 8.35693V8.95068H7.03303C6.72266 8.94393 6.43254 9.1126 6.27736 9.37574C6.11543 9.64562 6.11543 9.98297 6.27736 10.2529C6.43254 10.516 6.72266 10.6847 7.03303 10.6779H11.3511V11.2717C9.18534 14.6182 5.17759 16.6558 4.04408 17.2023C3.63251 16.224 2.71492 13.7951 2.71492 9.8143C2.71492 5.82679 3.63926 3.39785 4.04408 2.41953ZM13.0784 8.95068H14.8056V10.6779H13.0784V8.95068ZM16.5329 8.95068H20.851C21.33 8.95068 21.7146 9.33526 21.7146 9.8143C21.7146 10.2933 21.33 10.6779 20.851 10.6779H16.5329V8.95068Z" fill="currentColor"/>
</svg>
