<svg width="21" height="22" viewBox="0 0 21 22" fill="none" xmlns="http://www.w3.org/2000/svg">
<path d="M2.80788 0.232544C1.54244 0.232544 0.500183 1.2748 0.500183 2.54024V16.3864C0.500183 17.6518 1.54244 18.6941 2.80788 18.6941H7.8259C9.07014 20.5473 11.1845 21.771 13.5771 21.771C17.3915 21.771 20.5002 18.6623 20.5002 14.8479C20.5002 11.8461 18.5642 9.305 15.8848 8.34853V5.29865L10.8187 0.232544H2.80788ZM2.80788 1.77101H9.73095V6.38639H14.3463V8.00298C14.0902 7.97407 13.8407 7.92485 13.5771 7.92485C9.76271 7.92485 6.65403 11.0335 6.65403 14.8479C6.65403 15.6605 6.81881 16.4304 7.07771 17.1556H2.80788C2.37485 17.1556 2.03864 16.8194 2.03864 16.3864V2.54024C2.03864 2.10721 2.37485 1.77101 2.80788 1.77101ZM11.2694 2.85875L13.2586 4.84793H11.2694V2.85875ZM13.5771 9.46331C16.5601 9.46331 18.9617 11.865 18.9617 14.8479C18.9617 17.8309 16.5601 20.2325 13.5771 20.2325C10.5942 20.2325 8.19249 17.8309 8.19249 14.8479C8.19249 11.865 10.5942 9.46331 13.5771 9.46331ZM12.8079 11.0018V14.0787H9.73095V15.6172H12.8079V18.6941H14.3463V15.6172H17.4233V14.0787H14.3463V11.0018H12.8079Z" fill="white"/>
</svg>
