<svg width="13" height="14" viewBox="0 0 13 14" fill="none" xmlns="http://www.w3.org/2000/svg">
    <path
        d="M8.43661 0.440002C7.92097 0.440002 7.32308 0.840985 6.94467 1.43331C6.64901 1.92272 6.33101 2.68851 6.44605 3.45541C6.97783 3.5432 7.55384 3.09875 7.8828 2.50743C8.26121 1.9595 8.46991 1.2069 8.43661 0.440002ZM4.28007 3.47512C2.09017 3.47512 0.36792 5.24838 0.36792 7.64349C0.36792 9.19035 0.964657 10.6321 1.74752 11.7074C2.53038 12.7827 3.4648 13.56 4.4673 13.56C4.98591 13.56 5.36626 13.3989 5.67544 13.2801C5.98462 13.1613 6.24239 13.0673 6.71605 13.0673C7.1463 13.0673 7.38537 13.1595 7.69754 13.2801C8.00971 13.4008 8.40528 13.56 8.94115 13.56C10.0701 13.56 10.8548 12.6359 11.3949 11.8079C11.6649 11.3939 11.8753 10.9814 12.0255 10.6569C12.1007 10.4947 12.1614 10.3556 12.2049 10.247C12.2484 10.1383 12.2675 10.0962 12.2936 9.99866C12.3255 9.8792 12.3124 9.75218 12.2568 9.64174C12.2012 9.53129 12.107 9.4451 11.992 9.39952C11.9185 9.37042 11.5747 9.2066 11.2865 8.90484C10.9982 8.60308 10.7445 8.18156 10.7445 7.5075C10.7445 6.85225 10.98 6.39184 11.2254 6.07271C11.3481 5.91315 11.4742 5.7918 11.5683 5.71205C11.6624 5.63229 11.7891 5.56077 11.7004 5.60956C11.7636 5.57499 11.8187 5.52727 11.862 5.4696C11.9053 5.41194 11.9357 5.34567 11.9512 5.27527C11.9667 5.20486 11.9669 5.13195 11.9519 5.06145C11.9368 4.99095 11.9068 4.92449 11.8639 4.86655C10.9577 3.64309 9.68337 3.47418 9.11656 3.47512H9.11459C8.48118 3.47547 7.91288 3.6262 7.45118 3.76484C6.98896 3.90364 6.60052 4.0112 6.51305 4.0112C6.4066 4.0112 6.08509 3.91128 5.69515 3.77272C5.30521 3.63416 4.82827 3.47512 4.28007 3.47512ZM4.28007 4.4842C4.62592 4.4842 4.99126 4.59231 5.35813 4.72268C5.725 4.85304 6.0746 5.02028 6.51305 5.02028C6.94729 5.02028 7.30757 4.86068 7.7409 4.73056C8.17423 4.60044 8.64595 4.4842 9.11656 4.4842C9.11722 4.4842 9.11787 4.4842 9.11853 4.4842C9.43719 4.48353 10.0884 4.65104 10.6854 5.18386C10.5978 5.2729 10.5176 5.33767 10.4252 5.45781C10.0768 5.91088 9.73541 6.60271 9.73541 7.5075C9.73541 8.45099 10.1301 9.15529 10.5573 9.60252C10.8131 9.87032 10.9839 9.922 11.1938 10.042C11.1666 10.1055 11.1466 10.1565 11.1111 10.2332C10.9764 10.524 10.7836 10.897 10.5494 11.2561C10.0809 11.9743 9.45701 12.5509 8.94115 12.5509C8.59206 12.5509 8.3857 12.4631 8.06215 12.3381C7.7386 12.213 7.308 12.0582 6.71605 12.0582C6.09184 12.0582 5.6451 12.2112 5.31477 12.3381C4.98445 12.465 4.78926 12.5509 4.4673 12.5509C4.09746 12.5509 3.23518 12.0368 2.56346 11.1142C1.89168 10.1915 1.377 8.92608 1.377 7.64349C1.377 5.70762 2.61328 4.4842 4.28007 4.4842Z"
        fill="currentColor" />
</svg>