<svg width="21" height="22" viewBox="0 0 21 22" fill="none" xmlns="http://www.w3.org/2000/svg">
<path d="M2.80788 0.232605C1.54244 0.232605 0.500183 1.27486 0.500183 2.5403V16.3865C0.500183 17.6519 1.54244 18.6941 2.80788 18.6941H7.8259C9.07014 20.5474 11.1845 21.7711 13.5771 21.7711C17.3915 21.7711 20.5002 18.6624 20.5002 14.848C20.5002 11.8461 18.5642 9.30506 15.8848 8.34859V5.29871L10.8187 0.232605H2.80788ZM2.80788 1.77107H9.73095V6.38645H14.3463V8.00304C14.0902 7.97413 13.8407 7.92491 13.5771 7.92491C9.76271 7.92491 6.65403 11.0336 6.65403 14.848C6.65403 15.6605 6.81881 16.4304 7.07771 17.1557H2.80788C2.37485 17.1557 2.03864 16.8195 2.03864 16.3865V2.5403C2.03864 2.10727 2.37485 1.77107 2.80788 1.77107ZM11.2694 2.85881L13.2586 4.84799H11.2694V2.85881ZM13.5771 9.46337C16.5601 9.46337 18.9617 11.865 18.9617 14.848C18.9617 17.8309 16.5601 20.2326 13.5771 20.2326C10.5942 20.2326 8.19249 17.8309 8.19249 14.848C8.19249 11.865 10.5942 9.46337 13.5771 9.46337ZM12.8079 11.0018V14.0788H9.73095V15.6172H12.8079V18.6941H14.3463V15.6172H17.4233V14.0788H14.3463V11.0018H12.8079Z" fill="white"/>
</svg>
