<svg width="19" height="14" viewBox="0 0 19 14" fill="none" xmlns="http://www.w3.org/2000/svg">
    <path
        d="M1.968 0.440002C0.886625 0.440002 0 1.32663 0 2.408V11.592C0 12.6683 0.886625 13.56 1.968 13.56H16.4C17.4814 13.56 18.368 12.6734 18.368 11.592V2.408C18.368 1.32663 17.4763 0.440002 16.4 0.440002H1.968ZM1.968 1.752H16.4C16.769 1.752 17.056 2.039 17.056 2.408V3.064H1.312V2.408C1.312 2.03388 1.59388 1.752 1.968 1.752ZM1.312 4.376H17.056V11.592C17.056 11.961 16.769 12.248 16.4 12.248H1.968C1.599 12.248 1.312 11.961 1.312 11.592V4.376Z"
        fill="currentColor" />
</svg>