<svg width="34" height="34" viewBox="0 0 34 34" fill="none" xmlns="http://www.w3.org/2000/svg">
<path d="M17.4658 0.00691708C8.09825 -0.258682 0.273252 7.1577 0.00764951 16.5252C-0.25795 25.8928 7.15844 33.728 16.526 33.9936C25.8935 34.249 33.7287 26.8428 33.9943 17.4651C34.0454 15.5037 33.7492 13.6138 33.1771 11.8466L31.0216 13.8794C31.277 15.0134 31.4098 16.1881 31.3792 17.4038C31.1544 25.3309 24.5246 31.593 16.5975 31.3784C8.67032 31.1537 2.39806 24.5239 2.61258 16.5967C2.83732 8.66958 9.46712 2.39732 17.3943 2.61185C19.989 2.69357 22.3998 3.45973 24.4736 4.73665L26.4349 2.87745C23.8606 1.16126 20.796 0.0988577 17.4658 0.00691708ZM30.0716 4.80816L14.3807 20.499L10.0698 16.1983L9.15044 15.2687L7.30145 17.1177L8.23106 18.0371L14.3807 24.197L31.9206 6.65715L30.0716 4.80816Z" fill="#00BA88"/>
</svg>
