<svg width="35" height="46" viewBox="0 0 35 46" fill="none" xmlns="http://www.w3.org/2000/svg">
<path d="M1.92311 0.0844727C0.963072 0.0844727 0.192339 0.855205 0.192339 1.81524V15.391C0.165298 15.5667 0.165298 15.756 0.192339 15.9453V43.3537C0.192339 44.3137 0.963072 45.0845 1.92311 45.0845H11.875C12.6998 45.0845 13.403 44.503 13.5788 43.6917L17.5 24.3693L21.4213 43.6917C21.5971 44.503 22.3002 45.0845 23.125 45.0845H33.077C34.037 45.0845 34.8077 44.3137 34.8077 43.3537V15.9318C34.8348 15.756 34.8348 15.5667 34.8077 15.3774V5.39847C34.8077 5.35791 34.8077 5.31735 34.8077 5.27678V1.81524C34.8077 0.855205 34.037 0.0844727 33.077 0.0844727H1.92311ZM3.65388 7.00755H7.11542V8.71128C7.11542 8.71128 7.07485 10.104 6.41229 11.4156C5.89847 12.4297 5.19535 13.3492 3.65388 13.7413V7.00755ZM10.577 7.00755H24.4231V8.73832C24.4231 8.73832 24.4231 8.75184 24.4231 8.76536C24.4231 8.76536 24.4231 10.8342 25.5048 12.9841C26.4243 14.7825 28.3444 16.6755 31.3462 17.2299V41.6229H24.5313L19.2038 15.3098C19.028 14.5121 18.3249 13.9306 17.5 13.9306C16.6752 13.9306 15.9721 14.5121 15.7963 15.3098L10.4688 41.6229H3.65388V17.2299C6.65568 16.6755 8.57575 14.7825 9.49522 12.9841C10.577 10.8342 10.577 8.76536 10.577 8.76536C10.577 8.75184 10.577 8.73832 10.577 8.73832V7.00755ZM27.8846 7.00755H31.3462V13.7413C29.8047 13.3492 29.1016 12.4297 28.5878 11.4156C27.9252 10.104 27.8846 8.71128 27.8846 8.71128V7.00755Z" fill="#1CC8EE"/>
</svg>
