<svg width="29" height="29" viewBox="0 0 29 29" fill="none" xmlns="http://www.w3.org/2000/svg">
<path d="M2.65385 0.584473C1.47596 0.584473 0.5 1.56043 0.5 2.73832V26.4306C0.5 27.6085 1.47596 28.5845 2.65385 28.5845H9.11539C10.2933 28.5845 11.2692 27.6085 11.2692 26.4306V2.73832C11.2692 1.56043 10.2933 0.584473 9.11539 0.584473H2.65385ZM2.65385 2.73832H9.11539V9.19986H2.65385V2.73832ZM4.80769 4.89217V7.04601H6.96154V4.89217H4.80769ZM13.4231 4.89217V7.04601H19.8846V4.89217H13.4231ZM22.0385 4.89217V7.04601H28.5V4.89217H22.0385ZM2.65385 11.3537H9.11539V17.8152H2.65385V11.3537ZM5.88462 13.5076C5.28726 13.5076 4.80769 13.9871 4.80769 14.5845C4.80769 15.1818 5.28726 15.6614 5.88462 15.6614C6.48197 15.6614 6.96154 15.1818 6.96154 14.5845C6.96154 13.9871 6.48197 13.5076 5.88462 13.5076ZM13.4231 13.5076V15.6614H19.8846V13.5076H13.4231ZM22.0385 13.5076V15.6614H28.5V13.5076H22.0385ZM2.65385 19.9691H9.11539V26.4306H2.65385V19.9691ZM4.80769 22.1229V24.2768H6.96154V22.1229H4.80769ZM13.4231 22.1229V24.2768H19.8846V22.1229H13.4231ZM22.0385 22.1229V24.2768H28.5V22.1229H22.0385Z" fill="#14142B"/>
</svg>
