<svg width="24" height="26" viewBox="0 0 24 26" fill="none" xmlns="http://www.w3.org/2000/svg">
<path d="M17.1441 0.464996C15.8971 0.464996 14.8379 1.27629 14.4397 2.38807H0.797913V4.31115H14.4397C14.8379 5.42293 15.8971 6.23423 17.1441 6.23423C18.3911 6.23423 19.4503 5.42293 19.8484 4.31115H23.8748V2.38807H19.8484C19.4503 1.27629 18.3911 0.464996 17.1441 0.464996ZM17.1441 2.38807C17.6849 2.38807 18.1056 2.80875 18.1056 3.34961C18.1056 3.89048 17.6849 4.31115 17.1441 4.31115C16.6032 4.31115 16.1825 3.89048 16.1825 3.34961C16.1825 2.80875 16.6032 2.38807 17.1441 2.38807ZM7.52868 10.0804C6.28169 10.0804 5.22249 10.8917 4.82436 12.0035H0.797913V13.9265H4.82436C5.22249 15.0383 6.28169 15.8496 7.52868 15.8496C8.77568 15.8496 9.83487 15.0383 10.233 13.9265H23.8748V12.0035H10.233C9.83487 10.8917 8.77568 10.0804 7.52868 10.0804ZM7.52868 12.0035C8.06955 12.0035 8.49022 12.4241 8.49022 12.965C8.49022 13.5059 8.06955 13.9265 7.52868 13.9265C6.98782 13.9265 6.56714 13.5059 6.56714 12.965C6.56714 12.4241 6.98782 12.0035 7.52868 12.0035ZM17.1441 19.6958C15.8971 19.6958 14.8379 20.5071 14.4397 21.6188H0.797913V23.5419H14.4397C14.8379 24.6537 15.8971 25.465 17.1441 25.465C18.3911 25.465 19.4503 24.6537 19.8484 23.5419H23.8748V21.6188H19.8484C19.4503 20.5071 18.3911 19.6958 17.1441 19.6958ZM17.1441 21.6188C17.6849 21.6188 18.1056 22.0395 18.1056 22.5804C18.1056 23.1212 17.6849 23.5419 17.1441 23.5419C16.6032 23.5419 16.1825 23.1212 16.1825 22.5804C16.1825 22.0395 16.6032 21.6188 17.1441 21.6188Z" fill="white"/>
</svg>
