<svg width="21" height="21" viewBox="0 0 21 21" fill="none" xmlns="http://www.w3.org/2000/svg">
    <path
        d="M6.22769 0.290703C3.19254 0.290703 0.727692 2.75555 0.727692 5.7907C0.727692 8.82586 3.19254 11.2907 6.22769 11.2907C7.21597 11.2907 8.16129 11.0055 8.97769 10.5407L11.7277 13.6657V18.2907H7.72769V20.2907H17.7277V18.2907H13.7277V13.6657L20.4777 6.0407L20.7277 5.75945V4.2907H11.4777C10.8722 1.97039 8.71207 0.290703 6.22769 0.290703ZM6.22769 2.2907C7.61832 2.2907 8.81754 3.13055 9.35269 4.2907H4.72769V5.75945L4.97769 6.0407L7.57144 8.9782C7.13004 9.17352 6.66519 9.2907 6.22769 9.2907C4.26285 9.2907 2.72769 7.75555 2.72769 5.7907C2.72769 3.82586 4.26285 2.2907 6.22769 2.2907ZM7.85269 6.2907H17.6027L16.7277 7.2907H10.7277L13.7902 10.6032L12.7277 11.7907L7.85269 6.2907Z"
        fill="currentColor" />
</svg>