<svg width="21" height="18" viewBox="0 0 21 18" fill="none" xmlns="http://www.w3.org/2000/svg">
    <path
        d="M12.3315 0.795739C12.0399 0.798364 11.7485 0.861645 11.478 0.987145L6.65376 3.21761L7.23384 4.3309C7.69684 5.2219 8.74983 5.63193 9.69283 5.28793L12.3237 4.32894L17.7221 9.56332C18.1111 9.94032 18.3295 10.4579 18.3295 10.9989V11.7938H20.3295V1.79379L17.3295 2.79379L13.1889 0.97152C12.9159 0.85152 12.6231 0.793114 12.3315 0.795739ZM0.329544 1.79379V11.7938H1.32954L7.40572 17.1102C8.48872 18.0572 10.1211 18.0022 11.1381 16.9852L15.3764 12.7469C15.9024 12.2209 16.1643 11.5336 16.1713 10.8446L11.8315 6.63754L10.3764 7.16683C9.93542 7.32783 9.47528 7.40902 9.00728 7.40902C7.50828 7.40902 6.14945 6.58277 5.45845 5.25277L4.88033 4.13949C4.62833 3.65449 4.58518 3.08618 4.76118 2.56918C4.86318 2.27018 5.04018 2.00979 5.26118 1.79379H0.329544Z"
        fill="currentColor" />
</svg>