<svg width="17" height="21" viewBox="0 0 17 21" fill="none" xmlns="http://www.w3.org/2000/svg">
    <path
        d="M8.52401 0.290695C7.42245 0.290695 6.52401 1.18913 6.52401 2.2907C6.52401 2.98991 6.8287 3.57976 7.43026 3.9782L6.43026 6.2907L11.9303 9.38445L9.61776 3.9782C10.2193 3.57976 10.524 2.98991 10.524 2.2907C10.524 1.18913 9.62557 0.290695 8.52401 0.290695ZM5.61776 8.19695L4.71151 10.3844L14.6178 15.8844L13.2115 12.3844L5.61776 8.19695ZM3.93026 12.1969L3.02401 14.2907L13.8365 20.2907H16.524L15.9303 18.8844L3.93026 12.1969ZM2.21151 16.1969L0.52401 20.2907H9.61776L2.21151 16.1969Z"
        fill="currentColor" />
</svg>