<svg width="15" height="16" viewBox="0 0 15 16" fill="none" xmlns="http://www.w3.org/2000/svg">
<path d="M8.75 0.660645V1.91064H12.8662L5.0293 9.75244L5.9082 10.6313L13.75 2.79443V6.91064H15V0.660645H8.75ZM2.5 3.16064C1.11816 3.16064 0 4.27881 0 5.66064V13.1606C0 14.5425 1.11816 15.6606 2.5 15.6606H10C11.3818 15.6606 12.5 14.5425 12.5 13.1606V6.91064L11.25 8.16064V13.1606C11.25 13.8491 10.6885 14.4106 10 14.4106H2.5C1.81152 14.4106 1.25 13.8491 1.25 13.1606V5.66064C1.25 4.97217 1.81152 4.41064 2.5 4.41064H7.5L8.75 3.16064H2.5Z" fill="#287287"/>
</svg>
