<svg width="19" height="26" viewBox="0 0 19 26" fill="none" xmlns="http://www.w3.org/2000/svg">
<path id="Location" d="M9.93742 0.464996C4.94592 0.464996 0.874832 4.53608 0.874832 9.52758C0.874832 10.9295 1.44832 12.4658 2.2413 14.0872C3.03428 15.7156 4.06798 17.4149 5.10876 18.9654C7.17616 22.0736 9.23649 24.6012 9.23649 24.6012L9.93742 25.465L10.6384 24.6012C10.6384 24.6012 12.6987 22.0736 14.7732 18.9654C15.8069 17.4149 16.8406 15.7156 17.6335 14.0872C18.4265 12.4658 19 10.9295 19 9.52758C19 4.53608 14.9289 0.464996 9.93742 0.464996ZM9.93742 2.27751C13.9519 2.27751 17.1875 5.51314 17.1875 9.52758C17.1875 10.3772 16.7414 11.7862 16.0051 13.2942C15.2688 14.8094 14.2634 16.452 13.2651 17.9671C11.6013 20.4593 10.4684 21.8329 9.93742 22.4984C9.40641 21.8329 8.27359 20.4593 6.60975 17.9671C5.61145 16.452 4.60607 14.8094 3.86974 13.2942C3.1334 11.7862 2.68735 10.3772 2.68735 9.52758C2.68735 5.51314 5.92298 2.27751 9.93742 2.27751ZM9.93742 7.71507C8.93912 7.71507 8.1249 8.52928 8.1249 9.52758C8.1249 10.5259 8.93912 11.3401 9.93742 11.3401C10.9357 11.3401 11.7499 10.5259 11.7499 9.52758C11.7499 8.52928 10.9357 7.71507 9.93742 7.71507Z" fill="white"/>
</svg>
