<svg width="44" height="30" viewBox="0 0 44 30" fill="none" xmlns="http://www.w3.org/2000/svg">
<path d="M27.7701 14.5866C27.7701 22.6443 21.7311 29.1732 14.2791 29.1732C6.82706 29.1732 0.788086 22.6429 0.788086 14.5866C0.788086 6.53034 6.82854 0 14.2791 0C21.7296 0 27.7701 6.53034 27.7701 14.5866Z" fill="#A0A3BD"/>
<path d="M30.4811 0C27.4555 0 24.6701 1.08964 22.4191 2.90865L22.4299 2.91009C22.8726 3.37244 23.3611 3.69785 23.7376 4.23011L20.9306 4.27827C20.4907 4.75822 20.0899 5.2804 19.712 5.82306H24.6619C25.0385 6.31165 25.3866 6.73625 25.7024 7.27587H18.8146C18.5623 7.74558 18.3288 8.22841 18.125 8.73012H26.4866C26.7052 9.23038 26.9009 9.60826 27.0669 10.1378H17.6298C17.48 10.6411 17.3518 11.1559 17.2546 11.681H27.4623C27.5622 12.1858 27.639 12.6524 27.6917 13.1281H17.0521C17.0076 13.608 16.9846 14.0951 16.9846 14.5868H27.7685C27.7685 15.1032 27.7348 15.5816 27.6862 16.0455H17.0521C17.098 16.54 17.1655 17.0257 17.2546 17.5042H27.446C27.3408 17.9768 27.2192 18.4523 27.0668 18.9454H17.5987C17.7417 19.4442 17.9159 19.9284 18.1061 20.401H26.4866C26.2545 20.932 25.9913 21.3565 25.7012 21.8538H18.7905C19.0631 22.3644 19.364 22.8515 19.6905 23.3183L24.6621 23.3985C24.2383 23.9483 23.6945 24.2795 23.1991 24.7609C23.2261 24.7843 22.407 24.758 20.7943 24.7303C23.2477 27.4669 26.6768 29.1734 30.4809 29.1734C37.9343 29.1734 43.9759 22.6429 43.9759 14.5868C43.9759 6.53067 37.9356 0 30.4811 0Z" fill="#D9DBE9"/>
</svg>
