<svg width="44" height="30" viewBox="0 0 44 30" fill="none" xmlns="http://www.w3.org/2000/svg">
<path d="M26.982 14.5866C26.982 22.6443 20.943 29.1732 13.491 29.1732C6.03898 29.1732 0 22.6429 0 14.5866C0 6.53034 6.04046 0 13.491 0C20.9416 0 26.982 6.53034 26.982 14.5866Z" fill="#E2574C"/>
<path d="M29.693 0C26.6674 0 23.882 1.08964 21.631 2.90865L21.6418 2.91009C22.0845 3.37244 22.573 3.69785 22.9495 4.23011L20.1425 4.27827C19.7026 4.75822 19.3018 5.2804 18.9239 5.82306H23.8738C24.2504 6.31165 24.5985 6.73625 24.9143 7.27587H18.0265C17.7742 7.74558 17.5408 8.22841 17.337 8.73012H25.6985C25.9171 9.23038 26.1128 9.60826 26.2789 10.1378H16.8417C16.6919 10.6411 16.5637 11.1559 16.4665 11.681H26.6742C26.7741 12.1858 26.8509 12.6524 26.9036 13.1281H16.264C16.2195 13.608 16.1965 14.0951 16.1965 14.5868H26.9804C26.9804 15.1032 26.9467 15.5816 26.8981 16.0455H16.264C16.3099 16.54 16.3774 17.0257 16.4665 17.5042H26.6579C26.5527 17.9768 26.4312 18.4523 26.2787 18.9454H16.8106C16.9536 19.4442 17.1278 19.9284 17.318 20.401H25.6985C25.4664 20.932 25.2033 21.3565 24.9132 21.8538H18.0024C18.275 22.3644 18.5759 22.8515 18.9025 23.3183L23.874 23.3985C23.4502 23.9483 22.9064 24.2795 22.411 24.7609C22.438 24.7843 21.6189 24.758 20.0062 24.7303C22.4596 27.4669 25.8887 29.1734 29.6929 29.1734C37.1462 29.1734 43.1879 22.6429 43.1879 14.5868C43.1879 6.53067 37.1475 0 29.693 0Z" fill="#F4B459"/>
</svg>
