<svg width="20" height="20" viewBox="0 0 20 20" fill="none" xmlns="http://www.w3.org/2000/svg">
    <path
        d="M14.4219 0.79097C11.7889 0.79097 9.65399 2.83102 9.45899 5.41402L14.7988 10.7539C17.3818 10.5589 19.4219 8.42397 19.4219 5.79097C19.4219 3.02997 17.1829 0.79097 14.4219 0.79097ZM8.30079 7.08394L0.648445 16.4375C0.323445 16.8355 0.351852 17.4143 0.714852 17.7773L2.43555 19.498C2.79855 19.861 3.3784 19.8894 3.7754 19.5644L13.1289 11.9121L8.30079 7.08394ZM8.42188 10.791C8.67776 10.791 8.93391 10.8884 9.12891 11.0839C9.51991 11.4749 9.51991 12.108 9.12891 12.498L8.12891 13.498C7.73791 13.889 7.10485 13.889 6.71485 13.498C6.32385 13.107 6.32385 12.4739 6.71485 12.0839L7.71485 11.0839C7.91035 10.8884 8.16601 10.791 8.42188 10.791Z"
        fill="currentColor" />
</svg>