<svg width="14" height="14" viewBox="0 0 14 14" fill="none" xmlns="http://www.w3.org/2000/svg">
    <path
        d="M2.76011 0.440002L0.310791 11.3733H3.26834L2.76866 13.56H6.75121L7.57121 10.28H8.92079C9.92952 10.28 10.8558 10.1412 11.6328 9.73974C12.4097 9.33826 13.0138 8.64266 13.2749 7.69188L13.2792 7.67266L13.2834 7.65344C13.504 6.55055 13.4542 5.58269 12.9909 4.83255C12.6314 4.25045 12.0297 3.87272 11.2804 3.69438C11.3392 2.71661 11.0583 1.90059 10.5266 1.3561C9.89884 0.713224 9.02049 0.440002 8.17126 0.440002H2.76011ZM3.63563 1.53334H8.17126C8.78162 1.53334 9.3719 1.73845 9.74506 2.12058C10.1162 2.50061 10.3344 3.06413 10.1593 4.01683C9.97705 4.79419 9.67708 5.21248 9.21548 5.49026C8.7506 5.77002 8.0577 5.90667 7.10996 5.90667H4.5261L4.4236 6.33162L4.40011 6.43625L3.48188 10.28H1.67746L3.63563 1.53334ZM5.29912 2.62667L4.68412 4.81334H7.48579C8.16475 4.81334 8.98912 4.40334 8.98912 3.72C8.98912 3.04104 8.43808 2.62667 7.75912 2.62667H5.29912ZM11.0712 4.75568C11.5696 4.87359 11.8678 5.09812 12.0599 5.40912C12.3108 5.81545 12.3895 6.48596 12.2093 7.41427C12.0187 8.09141 11.6712 8.49109 11.1309 8.77026C10.5855 9.05212 9.82539 9.18667 8.92079 9.18667H6.71704L5.89704 12.4667H4.14173L5.39308 7H7.10996C8.15755 7 9.05183 6.86332 9.77923 6.42558C10.3752 6.06692 10.8063 5.49192 11.0712 4.75568Z"
        fill="currentColor" />
</svg>