<svg width="17" height="21" viewBox="0 0 17 21" fill="none" xmlns="http://www.w3.org/2000/svg">
<path d="M2.12586 0.290695C1.03279 0.290695 0.125856 1.19763 0.125856 2.2907V18.2907C0.125856 19.3838 1.03279 20.2907 2.12586 20.2907H14.1259C15.2189 20.2907 16.1259 19.3838 16.1259 18.2907V2.2907C16.1259 1.19763 15.2189 0.290695 14.1259 0.290695H2.12586ZM4.12586 4.2907C4.12586 4.2907 7.12203 5.01616 7.70203 6.02116C8.28203 7.02616 7.88622 8.34071 6.81922 8.95671C5.75122 9.57271 4.70586 9.2957 4.12586 8.2907C3.54586 7.2857 4.12586 4.2907 4.12586 4.2907ZM9.20593 9.3903C11.0959 12.1503 13.0749 15.7487 12.1259 16.2907C10.7859 17.0567 8.99578 13.7507 7.04578 11.0407C7.30578 10.9507 7.56531 10.8311 7.81531 10.6911C8.39531 10.3511 8.86593 9.91031 9.20593 9.3903Z" fill="#fff"/>
</svg>
