<svg width="32" height="33" viewBox="0 0 32 33" fill="none" xmlns="http://www.w3.org/2000/svg">
<rect x="1" y="1.71234" width="30" height="30" rx="15" stroke="#287287" stroke-width="2"/>
<path d="M17 12.7123C17 12.1601 16.5523 11.7123 16 11.7123C15.4477 11.7123 15 12.1601 15 12.7123L17 12.7123ZM15 20.7123C15 21.2646 15.4477 21.7123 16 21.7123C16.5523 21.7123 17 21.2646 17 20.7123L15 20.7123ZM15 12.7123L15 20.7123L17 20.7123L17 12.7123L15 12.7123Z" fill="#287287"/>
<path d="M12 15.7123C11.4477 15.7123 11 16.1601 11 16.7123C11 17.2646 11.4477 17.7123 12 17.7123V15.7123ZM20 17.7123C20.5523 17.7123 21 17.2646 21 16.7123C21 16.1601 20.5523 15.7123 20 15.7123V17.7123ZM12 17.7123H20V15.7123H12V17.7123Z" fill="#287287"/>
</svg>
