<svg width="40" height="30" viewBox="0 0 40 30" fill="none" xmlns="http://www.w3.org/2000/svg">
<path d="M1.90968 8.92012C0.865981 9.34594 0.389317 10.6535 0.858531 11.8036L2.14633 14.9601L2.57559 16.0122L4.48527 15.2331C5.54986 14.7988 6.77488 15.3852 7.25349 16.5583C7.73209 17.7314 7.26692 19.0075 6.20234 19.4418L4.29266 20.2209L5.15119 22.3252L6.43898 25.4817C6.55285 25.7608 6.76264 25.9873 7.0222 26.1116C7.28176 26.2358 7.56985 26.2476 7.82309 26.1443L12.5973 24.1965L11.7388 22.0922L7.9194 23.6504L7.06087 21.5461C9.15871 20.6902 10.1063 18.0909 9.16317 15.7792C8.22005 13.4675 5.72459 12.2729 3.62674 13.1288L2.76821 11.0245L21.865 3.23329L22.7236 5.33762L24.6332 4.5585L23.7747 2.45417C23.3055 1.30409 22.0502 0.703143 21.0065 1.12895L1.90968 8.92012ZM12.124 12.1167C11.0803 12.5425 10.6036 13.85 11.0729 15.0001L11.9314 17.1044L12.3606 18.1566L12.7899 19.2088L13.7448 18.8192L14.6996 18.4296C15.7642 17.9953 16.9892 18.5818 17.4678 19.7549C17.9464 20.928 17.4812 22.204 16.4167 22.6383L15.4618 23.0279L14.507 23.4174L14.9362 24.4696L15.3655 25.5218L16.224 27.6261C16.6933 28.7762 17.9485 29.3771 18.9922 28.9513L38.0891 21.1601C39.1328 20.7343 39.6094 19.4268 39.1402 18.2767L38.2817 16.1724L37.8524 15.1202L37.4232 14.068L36.4683 14.4576L35.5135 14.8471C34.4489 15.2815 33.2239 14.695 32.7453 13.5219C32.2667 12.3488 32.7318 11.0728 33.7964 10.6385L34.7512 10.2489L35.7061 9.85936L35.2768 8.8072L34.8476 7.75503L33.989 5.6507C33.5198 4.50061 32.2645 3.89967 31.2208 4.32548L12.124 12.1167ZM12.9825 14.221L32.0793 6.42981L32.9379 8.53415C30.84 9.39003 29.8925 11.9894 30.8356 14.301C31.7787 16.6127 34.2742 17.8074 36.372 16.9515L37.2305 19.0558L18.1337 26.847L17.2752 24.7426C19.373 23.8868 20.3206 21.2874 19.3775 18.9757C18.4344 16.6641 15.9389 15.4694 13.8411 16.3253L12.9825 14.221Z" fill="#A0A3BD"/>
</svg>
