<svg width="67" height="46" viewBox="0 0 67 46" fill="none" xmlns="http://www.w3.org/2000/svg">
<path d="M4.86361 0.0844727C2.6278 0.0844727 0.772705 1.93957 0.772705 4.17538V10.3117C0.772705 11.4414 1.68849 12.3572 2.81816 12.3572H4.86361C7.14417 12.3572 8.95452 14.1676 8.95452 16.4481C8.95452 18.7287 7.14417 20.539 4.86361 20.539C2.60427 20.539 0.772705 22.3706 0.772705 24.6299V30.7663C0.772759 31.3088 0.988279 31.829 1.37186 32.2126C1.75545 32.5962 2.27569 32.8117 2.81816 32.8117H11C12.1296 32.8117 13.0454 31.896 13.0454 30.7663C13.0454 29.6366 12.1297 28.7208 11 28.7208H6.90907C5.77939 28.7208 4.86361 27.8051 4.86361 26.6754C4.86361 25.5457 5.79385 24.6559 6.88779 24.374C10.4139 23.4653 13.0454 20.2443 13.0454 16.4481C13.0454 12.6519 10.4139 9.43089 6.88779 8.52221C5.79385 8.2403 4.86361 7.35051 4.86361 6.22084C4.86361 5.09116 5.7794 4.17538 6.90907 4.17538H43.7272C44.8569 4.17538 45.7727 5.09116 45.7727 6.22084C45.7727 7.35051 46.6885 8.26629 47.8182 8.26629C48.9478 8.26629 49.8636 7.35051 49.8636 6.22084V4.17538C49.8636 1.93957 48.0085 0.0844727 45.7727 0.0844727H4.86361ZM21.2272 12.3572C18.9914 12.3572 17.1363 14.2123 17.1363 16.4481V20.539V22.5845C17.1363 23.7141 18.0521 24.6299 19.1818 24.6299H21.2272C23.5078 24.6299 25.3182 26.4403 25.3182 28.7208C25.3182 31.0014 23.5078 32.8117 21.2272 32.8117H19.1818C18.0521 32.8117 17.1363 33.7275 17.1363 34.8572V36.9027V40.9936C17.1363 43.2294 18.9914 45.0845 21.2272 45.0845H62.1363C64.3722 45.0845 66.2272 43.2294 66.2272 40.9936V36.9027V34.8572C66.2272 33.7275 65.3115 32.8117 64.1818 32.8117H62.1363C59.8558 32.8117 58.0454 31.0014 58.0454 28.7208C58.0454 26.4403 59.8558 24.6299 62.1363 24.6299H64.1818C65.3115 24.6299 66.2272 23.7141 66.2272 22.5845V20.539V16.4481C66.2272 14.2123 64.3722 12.3572 62.1363 12.3572H21.2272ZM21.2272 18.4936C21.2272 17.3639 22.143 16.4481 23.2727 16.4481H60.0909C61.2206 16.4481 62.1363 17.3639 62.1363 18.4936C62.1363 19.6232 61.2061 20.513 60.1122 20.7949C56.5861 21.7036 53.9545 24.9246 53.9545 28.7208C53.9545 32.5171 56.5861 35.738 60.1122 36.6467C61.2061 36.9286 62.1363 37.8184 62.1363 38.9481C62.1363 40.0778 61.2206 40.9936 60.0909 40.9936H23.2727C22.143 40.9936 21.2272 40.0778 21.2272 38.9481C21.2272 37.8184 22.1575 36.9286 23.2514 36.6467C26.7775 35.738 29.4091 32.5171 29.4091 28.7208C29.4091 24.9246 26.7775 21.7036 23.2514 20.7949C22.1575 20.513 21.2272 19.6232 21.2272 18.4936Z" fill="#287287"/>
</svg>
