<svg width="49" height="46" viewBox="0 0 49 46" fill="none" xmlns="http://www.w3.org/2000/svg">
<path d="M9.5 0.0844727C6.40918 0.0844727 3.875 2.61865 3.875 5.70947V10.2798C3.61133 10.646 3.09863 11.3491 2.32227 12.521C1.83887 13.2388 1.35547 14.0005 0.95996 14.6743C0.769531 15.0259 0.59375 15.3481 0.447267 15.6704C0.300781 15.9927 0.125 16.2124 0.125 16.9595C0.125 19.3911 1.70703 21.4565 3.875 22.2329V45.0845H30.125V30.0845H33.875V45.0845H45.125V22.2329C47.293 21.4565 48.875 19.3911 48.875 16.9595C48.875 16.2124 48.6992 15.9927 48.5527 15.6704C48.4062 15.3481 48.2305 15.0259 48.04 14.6743C47.6445 14.0005 47.1611 13.2388 46.6924 12.521C45.9014 11.3491 45.3887 10.646 45.125 10.2798V5.70947C45.125 2.61865 42.5908 0.0844727 39.5 0.0844727H9.5ZM9.5 3.83447H39.5C40.5547 3.83447 41.375 4.65479 41.375 5.70947V7.58447H7.625V5.70947C7.625 4.65479 8.44531 3.83447 9.5 3.83447ZM7.625 11.3345H41.375V11.481L41.7266 11.979C41.7266 11.979 42.6494 13.2388 43.5576 14.6011C44.0264 15.2896 44.4805 15.9927 44.7881 16.5493C44.9053 16.7544 44.9785 16.9009 45.0518 17.0474C44.9785 18.0288 44.2607 18.8345 43.25 18.8345C42.1953 18.8345 41.375 18.0142 41.375 16.9595V15.0845H37.625V16.9595C37.625 18.0142 36.8047 18.8345 35.75 18.8345C34.6953 18.8345 33.875 18.0142 33.875 16.9595V15.0845H30.125V16.9595C30.125 18.0142 29.3047 18.8345 28.25 18.8345C27.1953 18.8345 26.375 18.0142 26.375 16.9595V15.0845H22.625V16.9595C22.625 18.0142 21.8047 18.8345 20.75 18.8345C19.6953 18.8345 18.875 18.0142 18.875 16.9595V15.0845H15.125V16.9595C15.125 18.0142 14.3047 18.8345 13.25 18.8345C12.1953 18.8345 11.375 18.0142 11.375 16.9595V15.0845H7.625V16.9595C7.625 18.0142 6.80469 18.8345 5.75 18.8345C4.73926 18.8345 4.02149 18.0288 3.96289 17.0474C4.02149 16.9009 4.09473 16.7544 4.21192 16.5493C4.51953 15.9927 4.97363 15.2896 5.42774 14.6011C6.35058 13.2388 7.27344 11.979 7.27344 11.979L7.625 11.481V11.3345ZM9.5 21.1196C10.4961 22.0132 11.8145 22.5845 13.25 22.5845C14.6855 22.5845 16.0039 22.0132 17 21.1196C17.9961 22.0132 19.3145 22.5845 20.75 22.5845C22.1855 22.5845 23.5039 22.0132 24.5 21.1196C25.4961 22.0132 26.8145 22.5845 28.25 22.5845C29.6855 22.5845 31.0039 22.0132 32 21.1196C32.9961 22.0132 34.3145 22.5845 35.75 22.5845C37.1855 22.5845 38.5039 22.0132 39.5 21.1196C40.042 21.603 40.6719 21.9839 41.375 22.2329V41.3345H37.625V26.3345H26.375V41.3345H7.625V22.2329C8.32812 21.9839 8.95801 21.603 9.5 21.1196ZM11.375 26.3345V37.5845H22.625V26.3345H11.375ZM15.125 30.0845H18.875V33.8345H15.125V30.0845Z" fill="#ED2E7E"/>
</svg>
