<svg width="23" height="19" viewBox="0 0 23 19" fill="none" xmlns="http://www.w3.org/2000/svg">
    <path
        d="M22.9314 0.290703H21.9314H1.93138H0.931381V2.2907H1.93138V13.2907C1.93138 14.3957 2.82638 15.2907 3.93138 15.2907H10.9314V18.2907H12.9314V15.2907H19.9314C21.0364 15.2907 21.9314 14.3957 21.9314 13.2907V2.2907H22.9314V0.290703ZM11.9314 8.2907C11.9314 10.4997 10.1404 12.2907 7.93138 12.2907C5.72238 12.2907 3.93138 10.4997 3.93138 8.2907C3.93138 6.0817 5.72238 4.2907 7.93138 4.2907V8.2907H11.9314ZM19.9314 9.2907V11.2907H13.9314V9.2907H19.9314ZM13.9314 7.2907V5.2907H19.9314V7.2907H13.9314Z"
        fill="currentColor" />
</svg>