<svg width="26" height="25" viewBox="0 0 26 25" fill="none" xmlns="http://www.w3.org/2000/svg">
<path d="M4.34713 0V1.92308H3.38559C1.80056 1.92308 0.500977 3.22266 0.500977 4.80769V22.1154C0.500977 23.7004 1.80056 25 3.38559 25H22.6164C24.2014 25 25.501 23.7004 25.501 22.1154V4.80769C25.501 3.22266 24.2014 1.92308 22.6164 1.92308H21.6548V0H19.7317V1.92308H6.27021V0H4.34713ZM3.38559 3.84615H4.34713V5.76923H6.27021V3.84615H19.7317V5.76923H21.6548V3.84615H22.6164C23.1572 3.84615 23.5779 4.26683 23.5779 4.80769V7.69231H2.42405V4.80769C2.42405 4.26683 2.84473 3.84615 3.38559 3.84615ZM2.42405 9.61538H23.5779V22.1154C23.5779 22.6562 23.1572 23.0769 22.6164 23.0769H3.38559C2.84473 23.0769 2.42405 22.6562 2.42405 22.1154V9.61538ZM14.909 13.4465C14.5184 13.454 14.1653 13.6869 14.0226 14.055C13.8724 14.4156 13.9625 14.8287 14.248 15.0992L15.4875 16.3462L14.248 17.5856C13.9926 17.8335 13.8949 18.1866 13.9775 18.5246C14.0677 18.8627 14.3306 19.1256 14.6686 19.2157C15.0067 19.2984 15.3598 19.2007 15.6001 18.9528L16.8471 17.7058L18.0866 18.9528C18.3345 19.2007 18.6876 19.2984 19.0256 19.2157C19.3637 19.1256 19.6266 18.8627 19.7167 18.5246C19.7994 18.1866 19.7017 17.8335 19.4538 17.5856L18.2068 16.3462L19.4538 15.0992C19.7317 14.8287 19.8144 14.4081 19.6641 14.04C19.5064 13.6794 19.1458 13.4465 18.7477 13.454C18.4998 13.4615 18.2669 13.5667 18.0866 13.747L16.8471 14.9865L15.6001 13.747C15.4198 13.5592 15.172 13.4465 14.909 13.4465Z" fill="currentColor"/>
</svg>
