<svg width="26" height="26" viewBox="0 0 26 26" fill="none" xmlns="http://www.w3.org/2000/svg">
    <path
        d="M13.4555 0.5C13.388 0.5 13.3205 0.507503 13.2529 0.530012C6.53776 0.642556 1.10559 6.08223 1.00055 12.7974C0.963033 12.9325 0.963033 13.0825 1.00055 13.2176C1.11309 19.9328 6.55277 25.3649 13.268 25.4775C13.403 25.5075 13.5531 25.5075 13.6881 25.4775C20.4033 25.3574 25.8355 19.9178 25.948 13.2026C25.978 13.0675 25.978 12.9175 25.948 12.7824C25.828 6.07473 20.4033 0.642556 13.6956 0.530012C13.6131 0.507503 13.5381 0.5 13.4555 0.5ZM12.5102 2.48079V4.35654C12.5026 4.70168 12.6902 5.02431 12.9828 5.19688C13.283 5.37695 13.6581 5.37695 13.9582 5.19688C14.2508 5.02431 14.4384 4.70168 14.4309 4.35654V2.48079C19.5029 2.93847 23.5321 6.96759 23.9822 12.0396H22.114C21.7689 12.0321 21.4462 12.2197 21.2737 12.5123C21.0936 12.8124 21.0936 13.1876 21.2737 13.4877C21.4462 13.7803 21.7689 13.9679 22.114 13.9604H23.9822C23.5321 19.0324 19.5029 23.0615 14.4309 23.5117V21.6435C14.4384 21.3809 14.3334 21.1333 14.1533 20.9457C13.9657 20.7656 13.7181 20.6606 13.4555 20.6681C12.9228 20.6756 12.5026 21.1107 12.5102 21.6435V23.5117C7.43812 23.0615 3.40901 19.0324 2.95133 13.9604H4.82708C5.17222 13.9679 5.49485 13.7803 5.66742 13.4877C5.84749 13.1876 5.84749 12.8124 5.66742 12.5123C5.49485 12.2197 5.17222 12.0321 4.82708 12.0396H2.95133C3.40901 6.96759 7.43812 2.93847 12.5102 2.48079ZM18.2725 8.19808L11.5498 11.0792L8.66862 17.8019L15.3913 14.9208L18.2725 8.19808Z"
        fill="currentColor" />
</svg>