<svg width="18" height="25" viewBox="0 0 18 25" fill="none" xmlns="http://www.w3.org/2000/svg">
<path d="M9.02348 0C8.04692 0 7.23777 0.809152 7.23777 1.78571V3.82254C4.16857 4.62472 1.88062 7.40095 1.88062 10.7143V17.8292C1.88062 17.8292 1.85272 18.3245 1.61556 18.7849C1.37839 19.2522 1.0924 19.6429 0.0949097 19.6429V21.4286H17.9521V19.6429C16.8918 19.6429 16.6197 19.2522 16.3965 18.8058C16.1733 18.3524 16.1663 17.8641 16.1663 17.8641V10.7143C16.1663 7.40095 13.8784 4.62472 10.8092 3.82254V1.78571C10.8092 0.809152 10 0 9.02348 0ZM9.02348 21.4286C8.03994 21.4286 7.23777 22.2307 7.23777 23.2143C7.23777 24.1978 8.03994 25 9.02348 25C10.007 25 10.8092 24.1978 10.8092 23.2143C10.8092 22.2307 10.007 21.4286 9.02348 21.4286ZM9.02348 5.35714C11.995 5.35714 14.3806 7.74275 14.3806 10.7143V17.8502C14.3806 17.8502 14.3597 18.7012 14.7992 19.5871C14.8061 19.608 14.8201 19.6219 14.8271 19.6429H3.17806C3.18503 19.6289 3.19898 19.615 3.20596 19.608C3.65239 18.7291 3.66634 17.885 3.66634 17.885V10.7143C3.66634 7.74275 6.05194 5.35714 9.02348 5.35714Z" fill="currentColor"/>
</svg>
