<svg width="24" height="25" viewBox="0 0 24 25" fill="none" xmlns="http://www.w3.org/2000/svg">
<path d="M11.9134 0C8.15811 0 5.09526 3.06285 5.09526 6.81818C5.09526 10.5735 8.15811 13.6364 11.9134 13.6364C15.6688 13.6364 18.7316 10.5735 18.7316 6.81818C18.7316 3.06285 15.6688 0 11.9134 0ZM11.9134 13.6364C5.65456 13.6364 0.549805 18.7411 0.549805 25H2.82253C2.82253 19.9663 6.87971 15.9091 11.9134 15.9091C16.9472 15.9091 21.0044 19.9663 21.0044 25H23.2771C23.2771 18.7411 18.1723 13.6364 11.9134 13.6364ZM11.9134 2.27273C14.4347 2.27273 16.4589 4.29688 16.4589 6.81818C16.4589 9.33949 14.4347 11.3636 11.9134 11.3636C9.39213 11.3636 7.36799 9.33949 7.36799 6.81818C7.36799 4.29688 9.39213 2.27273 11.9134 2.27273Z" fill="currentColor"/>
</svg>
