<svg width="28" height="26" viewBox="0 0 28 26" fill="none" xmlns="http://www.w3.org/2000/svg">
<path d="M5.41689 0.875183C3.69977 0.875183 2.29189 2.28306 2.29189 4.00018V6.53925C2.14541 6.7427 1.86058 7.13332 1.42926 7.78436C1.16071 8.18313 0.892151 8.6063 0.672424 8.98065C0.56663 9.17596 0.468974 9.355 0.387595 9.53404C0.306213 9.71307 0.208557 9.83514 0.208557 10.2502C0.208557 11.6011 1.08746 12.7486 2.29189 13.1799V25.8752H16.8752V17.5418H18.9586V25.8752H25.2086V13.1799C26.413 12.7486 27.2919 11.6011 27.2919 10.2502C27.2919 9.83514 27.1942 9.71307 27.1129 9.53404C27.0315 9.355 26.9338 9.17596 26.828 8.98065C26.6083 8.6063 26.3397 8.18313 26.0793 7.78436C25.6399 7.13332 25.355 6.7427 25.2086 6.53925V4.00018C25.2086 2.28306 23.8007 0.875183 22.0836 0.875183H5.41689ZM5.41689 2.95852H22.0836C22.6695 2.95852 23.1252 3.41425 23.1252 4.00018V5.04185H4.37522V4.00018C4.37522 3.41425 4.83095 2.95852 5.41689 2.95852ZM4.37522 7.12518H23.1252V7.20656L23.3205 7.48326C23.3205 7.48326 23.8332 8.18313 24.3378 8.93996C24.5982 9.32245 24.8505 9.71307 25.0214 10.0223C25.0865 10.1363 25.1272 10.2176 25.1679 10.299C25.1272 10.8443 24.7284 11.2918 24.1669 11.2918C23.581 11.2918 23.1252 10.8361 23.1252 10.2502V9.20852H21.0419V10.2502C21.0419 10.8361 20.5862 11.2918 20.0002 11.2918C19.4143 11.2918 18.9586 10.8361 18.9586 10.2502V9.20852H16.8752V10.2502C16.8752 10.8361 16.4195 11.2918 15.8336 11.2918C15.2476 11.2918 14.7919 10.8361 14.7919 10.2502V9.20852H12.7086V10.2502C12.7086 10.8361 12.2528 11.2918 11.6669 11.2918C11.081 11.2918 10.6252 10.8361 10.6252 10.2502V9.20852H8.54189V10.2502C8.54189 10.8361 8.08616 11.2918 7.50022 11.2918C6.91429 11.2918 6.45856 10.8361 6.45856 10.2502V9.20852H4.37522V10.2502C4.37522 10.8361 3.91949 11.2918 3.33356 11.2918C2.77203 11.2918 2.37327 10.8443 2.34072 10.299C2.37327 10.2176 2.41396 10.1363 2.47907 10.0223C2.64996 9.71307 2.90224 9.32245 3.15452 8.93996C3.66722 8.18313 4.17991 7.48326 4.17991 7.48326L4.37522 7.20656V7.12518ZM5.41689 12.5614C5.97028 13.0578 6.7027 13.3752 7.50022 13.3752C8.29775 13.3752 9.03017 13.0578 9.58356 12.5614C10.1369 13.0578 10.8694 13.3752 11.6669 13.3752C12.4644 13.3752 13.1968 13.0578 13.7502 12.5614C14.3036 13.0578 15.036 13.3752 15.8336 13.3752C16.6311 13.3752 17.3635 13.0578 17.9169 12.5614C18.4703 13.0578 19.2027 13.3752 20.0002 13.3752C20.7978 13.3752 21.5302 13.0578 22.0836 12.5614C22.3847 12.8299 22.7346 13.0415 23.1252 13.1799V23.7918H21.0419V15.4585H14.7919V23.7918H4.37522V13.1799C4.76585 13.0415 5.11578 12.8299 5.41689 12.5614ZM6.45856 15.4585V21.7085H12.7086V15.4585H6.45856ZM8.54189 17.5418H10.6252V19.6252H8.54189V17.5418Z" fill="currentColor"/>
</svg>
